
<svg width="371px" height="334px" viewBox="0 0 371 334" version="1.1" xmlns="http://www.w3.org/2000/svg" xmlns:xlink="http://www.w3.org/1999/xlink">
    <!-- Generator: Sketch 49.1 (51147) - http://www.bohemiancoding.com/sketch -->
    <desc>Created with Sketch.</desc>
    <defs></defs>
    <g id="Page-1" stroke="none" stroke-width="1" fill="none" fill-rule="evenodd">
        <g id="KittyCash-Blog" transform="translate(-537.000000, -270.000000)">
            <path d="M822.676681,315.843243 C766.450562,262.934412 613.708544,217.897186 547.101445,409.020036 C480.494345,600.142887 761.351987,656.652427 861.113532,552.286671 C960.875077,447.920916 878.9028,368.752073 822.676681,315.843243 Z" id="Path-4" fill="#FF9891"></path>
            <g id="Group" transform="translate(678.000000, 360.000000)" stroke="#000000" stroke-linecap="round" stroke-linejoin="round" stroke-width="2">
                <g id="Shape">
                    <g transform="translate(5.608696, 0.000000)">
                        <path d="M37.3913043,63.301875 C25.958913,56.10375 12.2718261,56.10375 0.839434783,63.301875 C0.839434783,44.055 0.839434783,24.81 0.839434783,5.566875 C12.2718261,-1.63125 25.958913,-1.63125 37.3913043,5.566875 C37.3913043,24.81 37.3913043,44.055 37.3913043,63.301875 Z"></path>
                        <path d="M73.9431739,63.301875 C62.5107826,56.10375 48.8236957,56.10375 37.3913043,63.301875 C37.3913043,44.055 37.3913043,24.81 37.3913043,5.566875 C48.8236957,-1.63125 62.5107826,-1.63125 73.9431739,5.566875 C73.9431739,24.81 73.9431739,44.055 73.9431739,63.301875 Z"></path>
                    </g>
                    <g transform="translate(0.000000, 8.750000)">
                        <polyline points="43 66.08125 0 58.399375 0 2.393125 6.44813043 0.0175"></polyline>
                        <polyline points="43 66.08125 86 58.399375 86 2.393125 79.5518696 0.0175"></polyline>
                    </g>
                </g>
                <polyline id="Shape" points="12 1.55063716 12 34 19.6102941 27.5675162 27 34 27 0"></polyline>
                <path d="M52,14.8311111 C52,14.8311111 59.5980612,12.9611111 71,14.8311111" id="Shape"></path>
                <path d="M52,27 C52,27 59.5980612,22.5 71,27" id="Shape"></path>
                <path d="M52,34.8315556 C52,34.8315556 59.5980612,32.9605556 71,34.8315556" id="Shape"></path>
                <path d="M52,45.8311111 C52,45.8311111 59.5980612,43.9611111 71,45.8311111" id="Shape"></path>
            </g>
        </g>
    </g>
</svg>